PathFileType	4	(X/Y/Z)	OpenSim_Sub01_EMGStiffKnee_Gyro.trc
DataRate	CameraRate	NumFrames	NumMarkers	Units	OrigDataRate	OrigDataStartFrame	OrigNumFrames
100	100	27	8	m	100	2784	5567
Frame#	Time	torso_imu_offset_imu	pelvis_imu_offset_imu	tibia_r_imu_offset_imu	femur_r_imu_offset_imu	tibia_l_imu_offset_imu	femur_l_imu_offset_imu	toes_r_imu_offset_imu	toes_l_imu_offset_imu
				X1	Y1	Z1	X2	Y2	Z2	X3	Y3	Z3	X4	Y4	Z4	X5	Y5	Z5	X6	Y6	Z6	X7	Y7	Z7	X8		Y8	Z8	

2784	27.83000000	-0.44934480	0.14878857	-0.30882601	-0.57929372	-0.03763386	0.10146332	-0.15089816	-0.70063425	-2.04635293	-0.62125497	0.19587220	1.66925249	-0.24898466	-0.15224610	0.71958809	-0.23368471	-0.60710484	1.09586060	-1.63949727	-3.03410825	-1.81804718	0.02892754	-0.36521954	-0.05231123
2785	27.84000000	-0.47817393	0.10861550	-0.32498041	-0.57237228	0.14078250	0.09348336	-0.35918935	-0.66916014	-1.88663464	-0.76207424	0.10116332	1.67688094	-0.22276379	-0.11750938	0.67486725	0.01267218	-0.67229590	1.25093437	-1.89876203	-1.93304764	-1.65246749	0.04622140	-0.32425907	-0.03191862
2786	27.85000000	-0.49973899	0.07000950	-0.34549191	-0.58075578	0.26763228	0.08261122	-0.88368539	-0.63311837	-1.52792646	-0.85265225	0.07314140	1.70725419	-0.09485621	-0.14544937	0.65113061	0.13824902	-0.58510737	1.17853569	-1.37683376	-0.73383729	-1.44299146	0.05832442	-0.32756161	-0.03040991
2787	27.86000000	-0.51775031	0.03209347	-0.36579710	-0.59562714	0.33624065	0.07791703	-1.41138739	-0.57274953	-0.97609745	-0.90051844	0.08868945	1.75060041	0.06530804	-0.18881595	0.63112500	0.19164649	-0.44208903	0.98394470	-0.59078178	0.32163962	-1.14289781	0.06556775	-0.34576186	-0.03768677
2788	27.87000000	-0.53644653	-0.00543093	-0.38099144	-0.60467195	0.34692710	0.08772616	-1.58223999	-0.46499164	-0.26035529	-0.91954406	0.11489147	1.79231909	0.16820253	-0.18759229	0.59866666	0.24618505	-0.36343713	0.79919568	-0.17627283	0.98818725	-0.69698884	0.06715524	-0.34278576	-0.04103699
2789	27.88000000	-0.55587440	-0.03996132	-0.38782654	-0.60184520	0.30936057	0.11382182	-1.36179627	-0.33411193	0.48411356	-0.90601636	0.12772074	1.81499174	0.19762524	-0.13909212	0.56431047	0.30725340	-0.36963786	0.68545823	-0.18760267	1.31714042	-0.16423515	0.06483125	-0.31246739	-0.03702905
2790	27.89000000	-0.57285384	-0.06666500	-0.38433010	-0.58592831	0.24040656	0.15295001	-0.96623004	-0.24079039	1.04061748	-0.84268906	0.11000290	1.79903684	0.19381258	-0.08475247	0.55918431	0.32796036	-0.40443205	0.64933684	-0.23163642	1.58803526	0.30853579	0.06229476	-0.27166239	-0.02937468
2791	27.90000000	-0.58423971	-0.08418165	-0.37007802	-0.55622612	0.15624257	0.20037956	-0.57395506	-0.21828472	1.29317361	-0.71552620	0.05719683	1.73321590	0.18933032	-0.05414055	0.60104014	0.27879643	-0.42497262	0.67840288	-0.04953920	1.99520456	0.61227012	0.06187308	-0.23545434	-0.02066017
2792	27.91000000	-0.58723724	-0.10163936	-0.34914902	-0.51322976	0.07045170	0.24737498	-0.23202788	-0.21558619	1.43127721	-0.52106541	0.00177625	1.63124627	0.18963769	-0.03818069	0.66631184	0.18589643	-0.43413155	0.70784293	0.18426263	2.46236351	0.75687059	0.06166830	-0.21190154	-0.00958158
2793	27.92000000	-0.57930667	-0.12941097	-0.32629517	-0.45765788	-0.00425733	0.28493825	0.03848761	-0.16992619	1.68754076	-0.25979456	-0.01921297	1.51143120	0.19490689	-0.02144358	0.72487364	0.08568634	-0.44213045	0.66772569	0.23039538	2.86956270	0.77476692	0.05903088	-0.20694875	0.00575088
2794	27.93000000	-0.56075457	-0.16747915	-0.30388675	-0.39035134	-0.06108218	0.31122105	0.24206485	-0.07568985	2.09465679	0.03794238	-0.00271040	1.39165387	0.20118889	-0.00033375	0.76275089	0.01464253	-0.44268506	0.55645949	0.07626445	3.19214319	0.70637496	0.05175362	-0.21435092	0.02523057
2795	27.94000000	-0.53407786	-0.20782922	-0.28245999	-0.31224794	-0.09776689	0.32987792	0.40281594	0.02874876	2.53144060	0.31882736	0.02818632	1.28946769	0.20136420	0.01963566	0.77840581	0.00926218	-0.41681551	0.42505449	-0.11618725	3.47878025	0.59825274	0.03797143	-0.21848292	0.04721378
2796	27.95000000	-0.50081436	-0.24354540	-0.26178038	-0.22805610	-0.11167328	0.34344174	0.51870253	0.11466368	2.90126264	0.54117761	0.05512695	1.21386103	0.19096472	0.03406983	0.77548969	0.08221650	-0.35933466	0.31764922	-0.23030054	3.75270800	0.48975206	0.01787957	-0.20840591	0.06965606
2797	27.96000000	-0.45948471	-0.27158848	-0.23946341	-0.15368094	-0.09867991	0.35069176	0.50848135	0.18535990	3.19221873	0.69963958	0.07586695	1.14839726	0.17364323	0.04259327	0.77212230	0.17537801	-0.30700985	0.25394313	-0.29731403	3.95595884	0.39834242	-0.00223057	-0.18782297	0.08943974
2798	27.97000000	-0.40836295	-0.28972197	-0.21288250	-0.10583345	-0.05541612	0.34982746	0.28713636	0.24982639	3.40849854	0.79495270	0.09086371	1.07340061	0.15426622	0.04581022	0.78718578	0.22149909	-0.30174957	0.24771351	-0.37147341	4.02152889	0.33755057	-0.01547762	-0.16296149	0.10362967
2799	27.98000000	-0.35038006	-0.29699634	-0.18173642	-0.08230784	0.00615168	0.34075734	-0.06768561	0.31349054	3.56071704	0.81852318	0.09644814	0.99106441	0.13339582	0.04786492	0.81094460	0.21272697	-0.34632593	0.29173421	-0.44213046	3.97184282	0.32244312	-0.02301721	-0.13731463	0.11499084
2800	27.99000000	-0.29205094	-0.29345344	-0.14751432	-0.06633925	0.06225702	0.32470547	-0.35316356	0.37903597	3.66443409	0.75458516	0.08577683	0.92041112	0.10828054	0.05562302	0.81164416	0.18691975	-0.41338623	0.36261072	-0.44870329	3.89814132	0.36926569	-0.03219057	-0.11227002	0.13067498
2801	28.00000000	-0.23859162	-0.28010838	-0.11206564	-0.04483847	0.09733816	0.30290011	-0.42176143	0.44634150	3.73351762	0.60395067	0.05486921	0.87324593	0.07598201	0.07103105	0.77145540	0.16797530	-0.47810700	0.43677687	-0.35822832	3.85864742	0.48580912	-0.04881958	-0.08815286	0.15632206
2802	28.01000000	-0.19108474	-0.26079241	-0.07817373	-0.01675103	0.12111510	0.27648144	-0.29978571	0.50716146	3.77643014	0.41723994	0.00849425	0.83864224	0.03325984	0.08121074	0.71561093	0.13481594	-0.52548284	0.49139225	-0.22362425	3.80821471	0.65465124	-0.07373872	-0.06229252	0.19274469
2803	28.02000000	-0.14979311	-0.23972071	-0.04864299	0.01658729	0.14725900	0.24669124	-0.04437791	0.55285329	3.80051705	0.25224311	-0.04670693	0.80195523	-0.02226758	0.07173953	0.67543450	0.06065278	-0.54327006	0.50609868	-0.10964168	3.68736283	0.85477070	-0.10627756	-0.03194288	0.23909393
2804	28.03000000	-0.11414716	-0.21906227	-0.02400982	0.05136886	0.17862225	0.21653508	0.30685817	0.59131098	3.81136235	0.13624288	-0.10028444	0.75579068	-0.07929666	0.04609888	0.65426510	-0.04233837	-0.53338720	0.49567145	-0.02048495	3.50809655	1.08104047	-0.13704455	-0.00151633	0.28301366
2805	28.04000000	-0.08293658	-0.19941090	-0.00306471	0.08188544	0.20972868	0.19037542	0.73134849	0.64315089	3.81319103	0.07302958	-0.13886085	0.69833865	-0.11599417	0.02154864	0.63390493	-0.13200026	-0.50865317	0.50191916	0.08623684	3.33743294	1.34056431	-0.14993976	0.01906668	0.30329630
2806	28.05000000	-0.05495043	-0.18124335	0.01543361	0.10524971	0.23451598	0.17135050	1.19302097	0.71935529	3.80615932	0.05565580	-0.15486286	0.63159921	-0.11718394	0.01021251	0.60357029	-0.18363282	-0.47982441	0.55071903	0.23632614	3.22108571	1.63444688	-0.13549619	0.02313481	0.28752814
2807	28.06000000	-0.02902494	-0.16480900	0.03268733	0.12710192	0.24581698	0.15885736	1.61454639	0.80130708	3.77843735	0.04706330	-0.15818742	0.56846662	-0.08827555	0.00789933	0.57615391	-0.22670018	-0.45069573	0.61854301	0.40273267	3.13726263	1.94503209	-0.10446882	0.01409223	0.25010227
2808	28.07000000	-0.00405299	-0.15039769	0.04983875	0.15440496	0.23680420	0.15159281	1.91465170	0.86620490	3.71747394	0.00931615	-0.16114904	0.52261037	-0.03842803	0.00777702	0.56807061	-0.29802445	-0.42377811	0.67378201	0.54951044	3.05244351	2.25042483	-0.07071676	-0.00294564	0.20959934
2809	28.08000000	0.02035552	-0.13953356	0.06724202	0.19032169	0.20879024	0.14812595	2.06718747	0.91052307	3.63308376	-0.02535520	-0.16390560	0.48916122	0.02404601	0.00863139	0.58293619	-0.39468392	-0.40163182	0.70058593	0.65381999	2.94437314	2.51720132	-0.03860349	-0.02513083	0.17309916
2810	28.09000000	0.04403888	-0.13468972	0.08464456	0.23508923	0.16935338	0.14692739	2.08844131	0.94556840	3.55228843	0.02926111	-0.15725904	0.44898209	0.09148566	0.01357095	0.61451342	-0.48316550	-0.38685451	0.69523995	0.70291848	2.79947845	2.70307264	-0.00518492	-0.05136105	0.13883022
